<?xml version="1.0" encoding="UTF-8" standalone="no"?>
<svg
   width="189.995"
   height="49"
   fill="none"
   viewBox="0 0 189.995 49"
   version="1.1"
   id="svg55"
   sodipodi:docname="logo-intellij-idea.svg"
   inkscape:version="1.2.2 (b0a8486541, 2022-12-01)"
   xmlns:inkscape="http://www.inkscape.org/namespaces/inkscape"
   xmlns:sodipodi="http://sodipodi.sourceforge.net/DTD/sodipodi-0.dtd"
   xmlns="http://www.w3.org/2000/svg"
   xmlns:svg="http://www.w3.org/2000/svg">
  <sodipodi:namedview
     id="namedview57"
     pagecolor="#ffffff"
     bordercolor="#666666"
     borderopacity="1.0"
     inkscape:showpageshadow="2"
     inkscape:pageopacity="0"
     inkscape:pagecheckerboard="0"
     inkscape:deskcolor="#d1d1d1"
     showgrid="false"
     inkscape:zoom="8"
     inkscape:cx="124.6875"
     inkscape:cy="25.6875"
     inkscape:window-width="3774"
     inkscape:window-height="1531"
     inkscape:window-x="2626"
     inkscape:window-y="32"
     inkscape:window-maximized="1"
     inkscape:current-layer="svg55" />
  <defs
     id="defs41">
    <linearGradient
       id="a"
       x1="-0.71999902"
       x2="24.1436"
       y1="7.62784"
       y2="61.252399"
       gradientUnits="userSpaceOnUse"
       gradientTransform="scale(0.61347968)">
      <stop
         offset=".1"
         stop-color="#FC801D"
         id="stop31" />
      <stop
         offset=".59"
         stop-color="#FE2857"
         id="stop33" />
    </linearGradient>
    <linearGradient
       id="b"
       x1="4.2203102"
       x2="62.921101"
       y1="60.0205"
       y2="1.31055"
       gradientUnits="userSpaceOnUse"
       gradientTransform="scale(0.61347968)">
      <stop
         offset=".21"
         stop-color="#FE2857"
         id="stop36" />
      <stop
         offset=".7"
         stop-color="#007EFF"
         id="stop38" />
    </linearGradient>
  </defs>
  <path
     fill="#000000"
     fill-rule="evenodd"
     d="M 54.881892,28.810355 H 51.532293 V 10.430504 h 3.349599 z M 65.403069,15.050006 c 0.963163,0 1.809765,0.208583 2.533671,0.631884 l 0.0061,0.01841 c 0.723906,0.417166 1.294442,1.030646 1.693203,1.822034 0.398762,0.791389 0.601211,1.742283 0.601211,2.846546 v 8.45375 h -3.085803 v -7.981371 c 0,-0.650288 -0.110427,-1.20242 -0.331279,-1.656395 -0.220853,-0.453975 -0.533728,-0.803658 -0.944759,-1.042915 -0.411031,-0.239257 -0.901815,-0.361953 -1.472351,-0.361953 -0.61348,0 -1.153342,0.134965 -1.625721,0.411031 -0.47238,0.276066 -0.840468,0.656423 -1.098129,1.153342 -0.257661,0.496919 -0.386492,1.055185 -0.386492,1.687069 V 28.81649 H 58.194682 V 15.369016 h 3.006051 v 1.969269 c 0.386492,-0.650288 0.883411,-1.177881 1.503025,-1.564373 0.76685,-0.484649 1.668665,-0.723906 2.699311,-0.723906 z m 8.754355,-2.963107 h 2.883354 v 3.282117 h 3.570452 l -0.01227,2.693175 h -3.570451 l 0.01227,6.785086 c 0,0.368088 0.122696,0.674827 0.361953,0.914084 0.239257,0.239257 0.545997,0.361953 0.914085,0.361953 h 2.282144 v 2.693176 h -2.901759 c -0.717771,0 -1.368059,-0.15337 -1.938595,-0.46011 -0.570536,-0.306739 -1.018377,-0.736175 -1.337386,-1.276037 -0.319009,-0.545997 -0.478514,-1.159477 -0.478514,-1.840439 l -0.01227,-7.183847 H 71.56854 l 0.01227,-2.693176 h 1.472351 c 0.337414,0 0.60121,-0.09816 0.803659,-0.30674 0.202448,-0.202448 0.300605,-0.466245 0.300605,-0.791389 z m 14.251133,2.963107 c 1.325116,0 2.502997,0.300605 3.533643,0.895681 l -0.01227,-0.0061 c 1.036781,0.60121 1.840439,1.429407 2.410975,2.490727 0.570536,1.06132 0.858872,2.27601 0.858872,3.64407 v 0.748445 H 84.592713 c 0.06135,0.619614 0.214718,1.19015 0.478514,1.699338 0.331279,0.644154 0.785254,1.141073 1.36806,1.503026 0.582806,0.361953 1.239229,0.539862 1.975404,0.539862 0.650289,0 1.233095,-0.128831 1.748418,-0.380358 0.515323,-0.251526 0.944758,-0.607344 1.288307,-1.061319 h 3.374138 c -0.319009,0.834332 -0.779119,1.545968 -1.380329,2.141044 -0.60121,0.595075 -1.331251,1.055185 -2.190123,1.380329 -0.852736,0.325144 -1.80363,0.484649 -2.846545,0.484649 -1.318982,0 -2.509132,-0.30674 -3.564317,-0.90795 -1.055185,-0.607345 -1.889518,-1.441677 -2.496863,-2.521402 -0.607344,-1.079724 -0.914084,-2.318953 -0.914084,-3.637934 0,-1.318981 0.30674,-2.515267 0.920219,-3.582721 0.61348,-1.067455 1.453947,-1.907922 2.515267,-2.515267 1.067455,-0.607345 2.214662,-0.914085 3.539778,-0.914085 z m -3.753269,5.693092 h 7.372799 c -0.07362,-0.411032 -0.190179,-0.797524 -0.361953,-1.159477 -0.30674,-0.650288 -0.742311,-1.159477 -1.306712,-1.527564 -0.564401,-0.368088 -1.21469,-0.552132 -1.950865,-0.552132 -0.736176,0 -1.392599,0.177909 -1.975405,0.533727 -0.582806,0.355818 -1.036781,0.846602 -1.36806,1.472351 -0.201221,0.378579 -0.330052,0.793659 -0.409804,1.233095 z m 15.900162,8.067257 H 97.457382 V 10.430504 h 3.098068 z m 6.09186,0 h -3.09807 V 10.430504 h 3.09807 z m 6.08572,-13.821697 V 23.5467 h -3.15329 v -8.558042 z m 3.58272,9.263543 c 0.2822,-0.496918 0.4233,-1.067454 0.4233,-1.717743 l -0.006,-0.0061 V 10.424369 h 3.26985 v 12.39229 c 0,1.196285 -0.27607,2.239201 -0.82206,3.141016 -0.55213,0.901815 -1.31898,1.601182 -2.30055,2.0981 -0.9877,0.496919 -2.12878,0.748446 -3.42322,0.748446 h -3.88332 v -2.981512 h 3.82197 c 0.65643,0 1.23923,-0.134965 1.74229,-0.411031 0.50305,-0.276066 0.89568,-0.662558 1.17788,-1.159477 z m -6.85257,-13.294104 h 3.53364 v 3.073533 h -3.53364 z m 25.34284,17.852258 h -3.34959 V 10.430504 h 3.34959 z m 10.52732,-18.379851 c 1.73614,0 3.28825,0.398762 4.65631,1.184016 v -0.01227 c 1.36806,0.791389 2.43551,1.877248 3.2085,3.269847 0.76685,1.392599 1.15334,2.969242 1.15334,4.742198 0,1.772956 -0.38036,3.349599 -1.15334,4.742198 -0.76685,1.392599 -1.83431,2.478458 -3.2085,3.269847 -1.3742,0.791388 -2.92017,1.184015 -4.65631,1.184015 h -6.89552 V 10.430504 Z m 2.97537,14.760321 c 0.85887,-0.521457 1.52757,-1.251498 1.99381,-2.208527 v 0.0061 c 0.47238,-0.957028 0.7055,-2.073561 0.7055,-3.361868 0,-1.288308 -0.23925,-2.404841 -0.7055,-3.361869 -0.46624,-0.957028 -1.1288,-1.693204 -1.99381,-2.208527 -0.865,-0.515323 -1.86498,-0.772984 -2.99991,-0.772984 h -3.59499 v 12.68066 h 3.59499 c 1.13493,0 2.14104,-0.251527 2.99991,-0.772985 z M 169.2161,20.98849 h -8.9568 v 4.926241 h 10.11014 V 28.81649 H 157.0692 V 10.436639 h 13.03645 v 2.901759 h -9.84635 v 4.815815 h 8.9568 z m 9.36783,-10.557986 h 3.53365 l 6.87711,18.379851 h -3.30666 l -1.56437,-4.410918 h -7.38016 l -1.44168,4.410918 h -3.38641 z m 1.45395,4.030562 -2.47846,7.367891 h 5.68083 l -2.63797,-7.367891 -0.28833,-1.141072 z M 53.808303,45.515407 c 0.104291,-0.190179 0.15337,-0.404896 0.15337,-0.644154 h 0.0061 v -5.613339 h 1.901787 v 5.748305 c 0,0.539862 -0.122695,1.024511 -0.374222,1.460082 -0.251527,0.43557 -0.595075,0.772984 -1.030646,1.018376 -0.435571,0.245392 -0.932489,0.368088 -1.478486,0.368088 h -1.453947 v -1.748417 h 1.196285 c 0.245392,0 0.46011,-0.04908 0.644154,-0.15337 0.190179,-0.104292 0.331279,-0.245392 0.435571,-0.435571 z m 9.3617,-1.165611 h -3.987618 v 1.852708 h 4.52748 v 1.656395 h -6.380189 v -8.600985 h 6.257493 v 1.66253 h -4.404784 v 1.822035 h 3.987618 z m 3.779034,-3.386408 h -2.552075 v -1.705474 h 6.987534 v 1.705474 h -2.533672 v 6.889377 h -1.901787 z m 10.551851,2.392571 c 0.177909,0.04908 0.343549,0.110426 0.496919,0.190178 h 0.0061 c 0.349684,0.190179 0.62575,0.447841 0.822063,0.785254 0.196314,0.337414 0.29447,0.717772 0.29447,1.141073 0,0.460109 -0.122696,0.871141 -0.374222,1.233094 -0.251527,0.361953 -0.60121,0.644153 -1.055185,0.846602 -0.453975,0.202448 -0.969298,0.306739 -1.545969,0.306739 h -3.895596 v -8.600985 h 3.821978 c 0.545997,0 1.036781,0.09816 1.466217,0.288336 0.429436,0.190179 0.760715,0.46011 0.999972,0.803658 0.239257,0.343549 0.355818,0.736176 0.355818,1.171746 0,0.380358 -0.09202,0.717772 -0.269931,1.012242 -0.177909,0.29447 -0.429436,0.527592 -0.742311,0.687097 -0.109812,0.05797 -0.236803,0.09399 -0.358885,0.128831 z m -1.717743,-2.656367 h -1.687069 v 2.116505 h 1.687069 c 0.233122,0 0.441705,-0.04908 0.619614,-0.134966 0.184044,-0.08589 0.31901,-0.208583 0.423301,-0.374223 0.104292,-0.165639 0.15337,-0.361953 0.15337,-0.570536 0,-0.208583 -0.05521,-0.392627 -0.15337,-0.545997 -0.104291,-0.159504 -0.245392,-0.276065 -0.423301,-0.361953 -0.177909,-0.08589 -0.386492,-0.12883 -0.619614,-0.12883 z m 0.760715,5.582665 c 0.196313,-0.09202 0.349683,-0.214718 0.460109,-0.380358 v 0.01227 c 0.110427,-0.16564 0.16564,-0.349684 0.16564,-0.570536 0,-0.220853 -0.05521,-0.417166 -0.16564,-0.588941 -0.110426,-0.171774 -0.269931,-0.30674 -0.466244,-0.398761 -0.202448,-0.09202 -0.429436,-0.141101 -0.680963,-0.141101 h -1.760686 v 2.202392 h 1.760686 c 0.257662,0 0.490784,-0.04294 0.687098,-0.134965 z m 10.159223,-2.86495 c -0.263796,0.411031 -0.631884,0.736175 -1.110398,0.963163 h -0.0061 c -0.08589,0.04294 -0.184044,0.07975 -0.2822,0.116561 l 1.963134,3.361868 H 85.095801 L 83.353519,44.724018 H 82.11429 v 3.134881 h -1.901787 v -8.600985 h 3.766765 c 0.619615,0 1.165612,0.110427 1.637991,0.337414 0.472379,0.226988 0.834333,0.545997 1.091994,0.957029 0.257661,0.411031 0.386492,0.877275 0.386492,1.423272 0,0.545997 -0.128831,1.030646 -0.392627,1.441678 z m -2.183987,-0.374223 c 0.196313,-0.09816 0.349683,-0.239257 0.453974,-0.417166 v 0.0061 c 0.104292,-0.177909 0.159505,-0.386493 0.159505,-0.631884 0,-0.245392 -0.05521,-0.453975 -0.159505,-0.631885 -0.104291,-0.177909 -0.257661,-0.312874 -0.453974,-0.411031 -0.196314,-0.09202 -0.429436,-0.1411 -0.693233,-0.1411 h -1.711608 v 2.374166 h 1.711608 c 0.263797,0 0.496919,-0.04908 0.693233,-0.147235 z m 3.380273,4.815815 3.073533,-8.600985 h 2.061291 l 3.141016,8.600985 h -1.895652 l -0.650288,-1.895652 h -3.190095 l -0.607344,1.895652 z m 3.963078,-6.374053 -0.987702,3.036724 h 2.27601 L 92.09557,41.484846 91.979008,40.932714 Z m 7.012073,6.374053 h -1.963135 v -8.600985 h 1.963135 z m 3.33733,-8.600985 3.69315,5.815788 h 0.006 v -5.815788 h 1.73615 v 8.600985 h -1.87111 l -3.68088,-5.815787 v 5.815787 h -1.73615 v -8.600985 z m 10.90767,3.472295 c 0.43557,0.07975 0.81593,0.245392 1.15334,0.484649 v -0.01227 c 0.33741,0.245392 0.59508,0.539862 0.78525,0.901815 0.19018,0.361953 0.2822,0.75458 0.2822,1.177881 0,0.521458 -0.1411,0.987702 -0.41716,1.398734 -0.27607,0.411031 -0.66256,0.736175 -1.15334,0.969297 C 113.27289,47.883439 112.70235,48 112.07047,48 c -0.63189,0 -1.19629,-0.116561 -1.68707,-0.343549 -0.49078,-0.226987 -0.87728,-0.552132 -1.15948,-0.957028 -0.2822,-0.404897 -0.42943,-0.883411 -0.43557,-1.417138 h 1.90179 c 0,0.220853 0.0614,0.417166 0.17791,0.58894 0.11656,0.171775 0.2822,0.300605 0.49692,0.392627 0.21471,0.09202 0.46011,0.141101 0.7239,0.141101 0.2638,0 0.49079,-0.04294 0.6871,-0.122696 0.19631,-0.07975 0.34355,-0.196314 0.45397,-0.349684 0.11043,-0.15337 0.16564,-0.325144 0.16564,-0.515323 0,-0.239257 -0.0736,-0.43557 -0.22085,-0.595075 -0.14723,-0.159505 -0.34968,-0.269931 -0.60121,-0.331279 l -1.54597,-0.319009 c -0.40489,-0.08589 -0.76071,-0.239257 -1.06745,-0.46011 -0.30674,-0.220853 -0.546,-0.503053 -0.71164,-0.834333 -0.16564,-0.337413 -0.25153,-0.711636 -0.25153,-1.122667 0,-0.515323 0.13497,-0.969298 0.39263,-1.36806 0.2638,-0.398762 0.62575,-0.711636 1.092,-0.938624 0.46624,-0.226987 0.99383,-0.337414 1.59504,-0.337414 0.60121,0 1.14107,0.110427 1.60732,0.325144 0.46624,0.214718 0.83433,0.515323 1.09813,0.901816 0.26379,0.380357 0.40489,0.828197 0.41716,1.325116 h -1.90178 c 0,-0.184044 -0.0552,-0.349684 -0.15337,-0.496919 -0.10429,-0.147235 -0.24539,-0.257661 -0.4233,-0.337414 -0.17791,-0.08589 -0.39263,-0.122696 -0.62575,-0.122696 -0.23313,0 -0.44171,0.04294 -0.61962,0.116562 -0.17791,0.07362 -0.31901,0.184043 -0.41716,0.319009 -0.0982,0.1411 -0.14724,0.300605 -0.14724,0.484649 0,0.208583 0.0675,0.374223 0.20245,0.515323 0.13497,0.1411 0.31901,0.233122 0.546,0.288335 z m 8.82184,5.12869 h -1.96314 v -8.600985 h 1.96314 z m 4.83422,-8.600985 c 0.81592,0 1.5521,0.190179 2.20239,0.558267 0.65029,0.374222 1.16561,0.883411 1.5337,1.539834 0.37422,0.650288 0.55826,1.392599 0.55826,2.202392 0,0.809793 -0.19018,1.545969 -0.55826,2.202392 -0.36809,0.656423 -0.87728,1.165611 -1.5337,1.539834 -0.65643,0.374223 -1.38647,0.558266 -2.20239,0.558266 h -3.35574 v -8.600985 z m 1.23309,6.66239 c 0.35582,-0.214718 0.63188,-0.521458 0.82206,-0.92022 v -0.0061 c 0.19018,-0.398761 0.28834,-0.88341 0.28834,-1.441677 0,-0.558266 -0.0982,-1.042915 -0.28834,-1.441677 -0.19018,-0.398762 -0.46624,-0.705502 -0.82206,-0.92022 -0.35582,-0.214718 -0.77298,-0.319009 -1.25763,-0.319009 h -1.42328 v 5.367947 h 1.42328 c 0.48465,0 0.90181,-0.104291 1.25763,-0.319009 z m 6.0121,-1.570508 v 1.852708 h 4.52748 v 1.656395 h -6.38019 v -8.600985 h 6.25749 v 1.66253 h -4.40478 v 1.822035 h 3.98762 v 1.607317 z"
     clip-rule="evenodd"
     id="path43"
     style="stroke:#ffffff;stroke-width:2;stroke-linecap:square;stroke-linejoin:round;stroke-dasharray:none;stroke-opacity:0.5;paint-order:markers stroke fill" />
  <path
     fill="#ff8100"
     d="M 9.7850009,3.5754332 H 2.4968623 C 1.116533,3.5754332 0,4.6979292 0,6.0719029 v 7.0600591 c 0,0.729918 0.31900821,1.423027 0.87114115,1.895345 L 24.281526,35.091038 c 0.453975,0.386431 1.030646,0.601148 1.625721,0.601148 h 7.288138 c 1.38033,0 2.496863,-1.116349 2.496863,-2.496494 v -7.060047 c 0,-0.729918 -0.31901,-1.423027 -0.871141,-1.895345 L 11.410722,4.1765513 C 10.956747,3.7901204 10.380076,3.5754332 9.7850009,3.5754332 Z"
     id="path45"
     style="stroke-width:0.61348" />
  <path
     fill="url(#a)"
     d="M 8.907725,3.5754332 H 2.4968623 C 1.116533,3.5754332 0,4.6917944 0,6.0719029 v 8.0291731 c 0,0.116561 0.0061348,0.239257 0.02453919,0.355757 L 3.2637119,37.115214 c 0.1779091,1.23291 1.2269594,2.146872 2.4723231,2.146872 h 9.613227 c 1.380329,0 2.496862,-1.116349 2.496862,-2.496494 V 25.393458 c 0,-0.26987 -0.04908,-0.533605 -0.128831,-0.791266 L 11.275757,5.2806429 C 10.938343,4.2624261 9.9813144,3.5754332 8.907725,3.5754332 Z"
     id="path47"
     style="fill:url(#a);stroke-width:0.61348" />
  <path
     fill="url(#b)"
     d="M 36.766021,0.00613296 H 15.926117 c -0.999972,0 -1.901787,0.59498204 -2.294414,1.51505734 L 3.7730902,24.516918 c -0.1349655,0.312813 -0.2024483,0.644031 -0.2024483,0.981383 v 11.26177 c 0,1.380083 1.116533,2.496432 2.4968623,2.496432 H 17.091728 c 0.490784,0 0.975433,-0.147173 1.386464,-0.423239 l 19.674293,-13.12638 c 0.693232,-0.466183 1.110399,-1.245179 1.110399,-2.079389 V 2.4964697 C 39.262884,1.1163551 38.146351,0 36.766021,0 Z"
     id="path49"
     style="fill:url(#b);stroke-width:0.61348" />
  <path
     fill="#000000"
     d="M 31.900943,7.3617562 H 7.3617562 V 31.900943 H 31.900943 Z"
     id="path51"
     style="stroke-width:0.61348" />
  <path
     fill="#ffffff"
     d="m 15.852315,18.034953 h -1.82817 v -5.993697 h 1.82817 v -1.601182 h -5.42316 v 1.601182 h 1.828169 v 5.993697 h -1.828169 v 1.601182 h 5.42316 z m 3.60726,-7.601013 v 6.17774 c 0,0.269931 -0.05521,0.503053 -0.171774,0.711637 -0.116561,0.208583 -0.276066,0.368087 -0.484649,0.484648 -0.208583,0.116562 -0.44784,0.171775 -0.711636,0.171775 h -1.318982 v 1.656395 h 1.545969 c 0.558267,0 1.055185,-0.122696 1.503025,-0.374223 0.447841,-0.251526 0.797524,-0.595075 1.049051,-1.03678 0.251526,-0.441706 0.380357,-0.938624 0.380357,-1.490756 V 10.43394 Z m -9.03042,18.40439 h 9.815674 v -1.840439 h -9.815674 z"
     id="path53"
     style="stroke-width:0.61348" />
</svg>
