<?xml version="1.0" encoding="UTF-8" standalone="no"?>
<!--
  - Copyright (c) 2025 gtk-kn
  -
  - SPDX-License-Identifier: CC-BY-SA-4.0
  -
  - Creative Commons Attribution-ShareAlike 4.0 International License.
  -
  - You should have received a copy of the license along with this
  - work. If not, see http://creativecommons.org/licenses/by-sa/4.0/
  -->

<svg
   version="1.1"
   id="Layer_1"
   x="0px"
   y="0px"
   viewBox="0 0 64 64"
   xml:space="preserve"
   sodipodi:docname="logo-head-only.svg"
   inkscape:export-filename="/home/leinardi/Workspace/gitlab/gtk-kn/docs/assets/logo-256.png"
   inkscape:export-xdpi="25.077551"
   inkscape:export-ydpi="25.077551"
   inkscape:version="1.1.2 (0a00cf5339, 2022-02-04)"
   width="64"
   height="64"
   xmlns:inkscape="http://www.inkscape.org/namespaces/inkscape"
   xmlns:sodipodi="http://sodipodi.sourceforge.net/DTD/sodipodi-0.dtd"
   xmlns="http://www.w3.org/2000/svg"
   xmlns:svg="http://www.w3.org/2000/svg"><defs
   id="defs47" /><sodipodi:namedview
   id="namedview45"
   pagecolor="#ffffff"
   bordercolor="#666666"
   borderopacity="1.0"
   inkscape:pageshadow="2"
   inkscape:pageopacity="0.0"
   inkscape:pagecheckerboard="true"
   showgrid="false"
   inkscape:zoom="11.313708"
   inkscape:cx="53.342368"
   inkscape:cy="22.848388"
   inkscape:window-width="3370"
   inkscape:window-height="1376"
   inkscape:window-x="70"
   inkscape:window-y="27"
   inkscape:window-maximized="1"
   inkscape:current-layer="g1051" />
<style
   type="text/css"
   id="style2">
	.st0{fill:#FFFFFF;}
	.st1{fill:#7F52FF;}
	.st2{fill:#E24462;}
	.st3{fill:#B125EA;}
	.st4{fill:#E44857;}
</style>
<g
   id="g42">












	<g
   inkscape:export-filename="/home/leinardi/Workspace/gitlab/gtk-kn/docs/assets/logo-1024.png"
   inkscape:export-xdpi="25.062208"
   inkscape:export-ydpi="25.062208"
   id="g1051"
   transform="translate(-204.29999,-22)"><g
     id="g1906"
     transform="matrix(0.10019692,0,0,0.10019692,184.99915,19.825805)"><path
       id="path1805"
       class="st0"
       d="M 615.40039,446.30664 307.69922,308.82227 0,446.30664 V 458.5 460.89062 L 307.69922,638.44141 615.40039,460.89062 V 458.5 Z"
       transform="translate(204.29999,22)" /><path
       id="path1803"
       class="st0"
       d="M 66.5,-0.30078125 V 319.90039 323.19922 325 c 0,1.3 -3.91e-4,2.7 0.09961,4 l 0.09961,8.5 h 0.40039 c 2.3,24.4 11.300782,47.59922 25.800782,67.19922 l -85.0996098,38 L 0,446.19922 v 0.10742 L 307.69922,308.82227 615.40039,446.30664 v -0.10742 l -7.80078,-3.5 -84.19922,-37.59961 C 540.50039,382.19961 550,354 550,325 c 0,-5.6 -0.39961,-11.40078 -1.09961,-17.30078 V -0.30078125 L 307.69922,177.90039 Z"
       transform="translate(204.29999,22)" /><polygon
       class="st2"
       points="512,350 230.9,475.6 512,637.8 793.1,475.6 "
       id="polygon8" /><polygon
       class="st2"
       points="735.6,341.9 288.4,341.9 288.4,56.5 512,221.7 735.6,56.5 "
       id="polygon12" /><g
       id="g20">
		<path
   class="st0"
   d="m 620.4,240.8 c -49.1,0 -90.6,33.6 -102.6,78.9 v 0 c -2.3,8.7 -3.6,17.8 -3.6,27.2 0,9.4 1.2,18.5 3.6,27.2 v 0 c 12,45.4 53.5,78.9 102.6,78.9 58.5,0 106.2,-47.6 106.2,-106.2 0,-58.6 -47.6,-106 -106.2,-106 z m 0,202.3 c -53,0 -96.1,-43.1 -96.1,-96.1 0,-53 43.1,-96.1 96.1,-96.1 53,0 96.1,43.1 96.1,96.1 0,53 -43.1,96.1 -96.1,96.1 z"
   id="path14" />
		<path
   class="st2"
   d="m 620.4,230.7 c -48.9,0 -90.7,30.1 -107.9,72.8 -2.1,5.3 -3.9,10.7 -5.2,16.3 v 0 c -2.1,8.7 -3.2,17.8 -3.2,27.2 0,9.4 1.1,18.5 3.2,27.2 v 0 c 1.3,5.6 3.1,11.1 5.2,16.3 17.2,42.7 59,72.8 107.9,72.8 64.2,0 116.3,-52.1 116.3,-116.3 0,-64.2 -52,-116.3 -116.3,-116.3 z m 0,212.4 c -53,0 -96.1,-43.1 -96.1,-96.1 0,-53 43.1,-96.1 96.1,-96.1 53,0 96.1,43.1 96.1,96.1 0,53 -43.1,96.1 -96.1,96.1 z"
   id="path16" />
		<circle
   class="st0"
   cx="620.40002"
   cy="347"
   r="96.099998"
   id="circle18" />
	</g><g
       id="g28">
		<path
   class="st0"
   d="m 507.3,319.8 c -12,-45.4 -53.5,-79 -102.6,-79 -58.6,0 -106.2,47.6 -106.2,106.2 0,58.6 47.6,106.2 106.2,106.2 49.1,0 90.6,-33.6 102.6,-79 2.3,-8.7 3.6,-17.8 3.6,-27.2 0,-9.4 -1.2,-18.5 -3.6,-27.2 z M 404.7,443.1 c -53,0 -96.1,-43.1 -96.1,-96.1 0,-53 43.1,-96.1 96.1,-96.1 53,0 96.1,43.1 96.1,96.1 0,53 -43.1,96.1 -96.1,96.1 z"
   id="path22" />
		<path
   class="st2"
   d="m 517.8,319.8 c -1.3,-5.6 -3.1,-11.1 -5.2,-16.3 -17.2,-42.7 -59,-72.8 -107.9,-72.8 -64.2,0 -116.3,52.1 -116.3,116.3 0,64.2 52,116.3 116.3,116.3 48.8,0 90.6,-30.1 107.9,-72.8 2.1,-5.3 3.9,-10.7 5.2,-16.3 2.1,-8.7 3.2,-17.8 3.2,-27.2 0,-9.4 -1.1,-18.5 -3.2,-27.2 z M 404.7,443.1 c -53,0 -96.1,-43.1 -96.1,-96.1 0,-53 43.1,-96.1 96.1,-96.1 53,0 96.1,43.1 96.1,96.1 0,53 -43.1,96.1 -96.1,96.1 z"
   id="path24" />
		<circle
   class="st0"
   cx="404.70001"
   cy="347"
   r="96.099998"
   id="circle26" />
	</g><circle
       class="st2"
       cx="404.70001"
       cy="346.29999"
       r="79.699997"
       id="circle30" /><circle
       class="st0"
       cx="416.5"
       cy="327.5"
       r="30.5"
       id="circle32" /><circle
       class="st2"
       cx="620.40002"
       cy="347"
       r="79.699997"
       id="circle34" /><rect
       x="501.39999"
       y="373.39999"
       class="st4"
       width="20.700001"
       height="103.4"
       id="rect36" /><path
       class="st0"
       d="m 545.1,441.3 c 3.9,27 -8.8,57.2 -32.2,72.4 -24.3,-14.6 -37.7,-45.2 -33.9,-72.4 2.7,-19.5 15.3,-37.4 33,-37.3 17.9,-0.1 30.3,17.9 33.1,37.3 z"
       id="path38" /><circle
       class="st0"
       cx="633.40002"
       cy="327.5"
       r="30.5"
       id="circle40" /></g></g>
</g>
</svg>
