<?xml version="1.0" encoding="UTF-8" standalone="no"?>
<svg
   viewBox="0 0 190.998 48"
   version="1.1"
   id="svg27"
   sodipodi:docname="logo-gitlab.svg"
   width="190.998"
   height="48"
   inkscape:version="1.2.2 (b0a8486541, 2022-12-01)"
   xmlns:inkscape="http://www.inkscape.org/namespaces/inkscape"
   xmlns:sodipodi="http://sodipodi.sourceforge.net/DTD/sodipodi-0.dtd"
   xmlns="http://www.w3.org/2000/svg"
   xmlns:svg="http://www.w3.org/2000/svg">
  <sodipodi:namedview
     id="namedview29"
     pagecolor="#ffffff"
     bordercolor="#666666"
     borderopacity="1.0"
     inkscape:showpageshadow="2"
     inkscape:pageopacity="0.0"
     inkscape:pagecheckerboard="0"
     inkscape:deskcolor="#d1d1d1"
     showgrid="false"
     inkscape:zoom="8"
     inkscape:cx="115.875"
     inkscape:cy="21.5625"
     inkscape:window-width="3774"
     inkscape:window-height="1531"
     inkscape:window-x="2626"
     inkscape:window-y="32"
     inkscape:window-maximized="1"
     inkscape:current-layer="svg27" />
  <defs
     id="defs4">
    <style
       id="style2">.cls-1{fill:#171321;}.cls-2{fill:#e24329;}.cls-3{fill:#fc6d26;}.cls-4{fill:#fca326;}</style>
  </defs>
  <g
     id="LOGO"
     transform="matrix(0.26174465,0,0,0.26174465,-38.955687,-30.09969)">
    <path
       class="cls-1"
       d="m 428.92,171.51 h 22.78 c -3.8,-24.22 -24.77,-41.09 -52.06,-41.09 -32.29,0 -56.52,23.74 -56.52,63.5 0,39.05 23.14,63.27 57.18,63.27 30.55,0 52.42,-19.65 52.42,-51.46 v -14.82 h -50.07 v 17.47 h 28.44 c -0.36,17.6 -12.11,28.74 -30.67,28.74 -20.66,0 -34.82,-15.48 -34.82,-43.44 0,-27.78 14.4,-43.2 34.34,-43.2 14.88,0 25.06,7.95 28.98,21.03 z"
       id="path6" />
    <path
       class="cls-1"
       d="m 467.78,255.5 h 21.81 V 163 h -21.81 z m 11,-107.2 c 6.93,0 12.59,-5.31 12.59,-11.81 0,-6.5 -5.66,-11.87 -12.59,-11.87 -6.93,0 -12.65,5.3 -12.65,11.87 0,6.57 5.62,11.81 12.61,11.81 z"
       id="path8" />
    <path
       class="cls-1"
       d="M 554.9,163 H 536.64 V 140.78 H 514.83 V 163 H 501.7 v 16.87 h 13.13 v 51.46 c -0.12,17.41 12.54,26 28.92,25.49 a 44.29,44.29 0 0 0 12.84,-2.17 l -3.68,-17.06 a 26.57,26.57 0 0 1 -6.38,0.85 c -5.49,0 -9.89,-1.93 -9.89,-10.73 v -47.89 h 18.26 z"
       id="path10" />
    <path
       class="cls-1"
       d="m 571.78,255.5 h 76.7 V 236.76 H 594.14 V 132.1 h -22.36 z"
       id="path12" />
    <path
       class="cls-1"
       d="m 690.26,257.37 c 14.52,0 23.19,-6.81 27.17,-14.58 h 0.72 v 12.71 h 21 v -61.94 c 0,-24.46 -19.94,-31.81 -37.6,-31.81 -19.46,0 -34.4,8.67 -39.22,25.54 l 20.37,2.9 c 2.16,-6.33 8.31,-11.75 19,-11.75 10.13,0 15.67,5.18 15.67,14.28 v 0.36 c 0,6.26 -6.57,6.57 -22.9,8.31 -17.95,1.93 -35.12,7.29 -35.12,28.14 -0.06,18.2 13.25,27.84 30.91,27.84 z m 7.17,-16 c -9.1,0 -15.61,-4.16 -15.61,-12.17 0,-8.38 7.29,-11.87 17,-13.26 5.73,-0.78 17.18,-2.23 20,-4.51 v 10.9 c 0.06,10.27 -8.26,19.01 -21.39,19.01 z"
       id="path14" />
    <path
       class="cls-1"
       d="m 755.21,255.5 h 21.45 v -14.58 h 1.26 c 3.44,6.75 10.61,16.21 26.52,16.21 21.81,0 38.14,-17.3 38.14,-47.78 0,-30.85 -16.81,-47.6 -38.2,-47.6 -16.33,0 -23.14,9.82 -26.46,16.51 H 777 V 132.1 h -21.79 z m 21.39,-46.27 c 0,-18 7.71,-29.59 21.75,-29.59 14.52,0 22,12.35 22,29.59 0,17.24 -7.59,30 -22,30 -13.92,0 -21.75,-12.05 -21.75,-30 z"
       id="path16" />
    <path
       class="cls-2"
       d="m 302,174.37 -0.21,-0.56 -21.2,-55.3 a 5.5,5.5 0 0 0 -2.18,-2.63 5.6,5.6 0 0 0 -8.41,3.2 l -14.31,43.81 h -57.95 l -14.31,-43.81 a 5.61,5.61 0 0 0 -8.41,-3.2 5.5,5.5 0 0 0 -2.18,2.63 l -21.19,55.31 -0.22,0.55 a 39.36,39.36 0 0 0 13.06,45.49 l 0.08,0.06 0.18,0.14 32.25,24.17 16,12.09 9.72,7.35 a 6.57,6.57 0 0 0 7.92,0 l 9.72,-7.35 16,-12.09 32.48,-24.31 0.09,-0.07 A 39.36,39.36 0 0 0 302,174.37 Z"
       id="path18" />
    <path
       class="cls-3"
       d="m 302,174.37 -0.21,-0.56 a 71.5,71.5 0 0 0 -28.5,12.82 l -46.55,35.2 29.64,22.4 32.48,-24.31 0.09,-0.07 A 39.36,39.36 0 0 0 302,174.37 Z"
       id="path20" />
    <path
       class="cls-4"
       d="m 197,244.23 16,12.09 9.72,7.35 a 6.57,6.57 0 0 0 7.92,0 l 9.72,-7.35 16,-12.09 -29.64,-22.4 z"
       id="path22" />
    <path
       class="cls-3"
       d="m 180.14,186.63 a 71.44,71.44 0 0 0 -28.49,-12.81 l -0.22,0.55 a 39.36,39.36 0 0 0 13.06,45.49 l 0.08,0.06 0.18,0.14 32.25,24.17 29.66,-22.4 z"
       id="path24" />
  </g>
</svg>
