<?xml version="1.0" encoding="UTF-8" standalone="no"?>
<svg
   viewBox="0 0 190.998 48"
   version="1.1"
   id="svg27"
   sodipodi:docname="logo-gitlab.svg"
   width="190.998"
   height="48"
   inkscape:version="1.2.2 (b0a8486541, 2022-12-01)"
   xmlns:inkscape="http://www.inkscape.org/namespaces/inkscape"
   xmlns:sodipodi="http://sodipodi.sourceforge.net/DTD/sodipodi-0.dtd"
   xmlns="http://www.w3.org/2000/svg"
   xmlns:svg="http://www.w3.org/2000/svg">
  <sodipodi:namedview
     id="namedview29"
     pagecolor="#ffffff"
     bordercolor="#666666"
     borderopacity="1.0"
     inkscape:showpageshadow="2"
     inkscape:pageopacity="0.0"
     inkscape:pagecheckerboard="0"
     inkscape:deskcolor="#d1d1d1"
     showgrid="false"
     inkscape:zoom="8"
     inkscape:cx="114.4375"
     inkscape:cy="21.6875"
     inkscape:window-width="3774"
     inkscape:window-height="1531"
     inkscape:window-x="2626"
     inkscape:window-y="32"
     inkscape:window-maximized="1"
     inkscape:current-layer="svg27" />
  <defs
     id="defs4">
    <style
       id="style2">.cls-1{fill:#171321;}.cls-2{fill:#e24329;}.cls-3{fill:#fc6d26;}.cls-4{fill:#fca326;}</style>
  </defs>
  <path
     class="cls-1"
     d="m 73.311828,14.792135 h 5.962543 C 78.279742,8.4526795 72.790956,4.0370473 65.647945,4.0370473 c -8.451735,0 -14.793808,6.2138177 -14.793808,16.6207857 0,10.221128 6.056772,16.560584 14.966559,16.560584 7.996299,0 13.720655,-5.143283 13.720655,-13.46938 V 19.869981 H 66.435796 v 4.572679 h 7.444018 c -0.09423,4.606706 -3.169728,7.522541 -8.027708,7.522541 -5.407645,0 -9.113949,-4.051807 -9.113949,-11.370187 0,-7.271267 3.769123,-11.3073691 8.988311,-11.3073691 3.894761,0 6.559321,2.0808701 7.58536,5.5044901 z"
     id="path6"
     style="stroke-width:2;stroke:#ffffff;stroke-opacity:0.5;stroke-dasharray:none;paint-order:markers stroke fill;stroke-linecap:square;stroke-linejoin:round" />
  <path
     class="cls-1"
     d="m 83.483225,36.776068 h 5.708651 V 12.564688 H 83.483225 Z M 86.362417,8.7170416 c 1.81389,0 3.295365,-1.3898641 3.295365,-3.0912043 0,-1.7013402 -1.481475,-3.106909 -3.295365,-3.106909 -1.813891,0 -3.31107,1.3872466 -3.31107,3.106909 0,1.7196623 1.471005,3.0912043 3.3006,3.0912043 z"
     id="path8"
     style="stroke-width:2;stroke:#ffffff;stroke-opacity:0.5;stroke-dasharray:none;paint-order:markers stroke fill;stroke-linecap:square;stroke-linejoin:round" />
  <path
     class="cls-1"
     d="m 106.28642,12.564688 h -4.77946 V 6.7487218 h -5.708649 v 5.8159662 h -3.436707 v 4.415632 h 3.436707 V 30.4497 c -0.03141,4.556974 3.282278,6.805361 7.569659,6.671871 a 11.592671,11.592671 0 0 0 3.3608,-0.567986 l -0.96322,-4.465364 a 6.9545554,6.9545554 0 0 1 -1.66993,0.222483 c -1.43698,0 -2.58866,-0.505167 -2.58866,-2.80852 V 16.967233 h 4.77946 z"
     id="path10"
     style="stroke-width:2;stroke:#ffffff;stroke-opacity:0.5;stroke-dasharray:none;paint-order:markers stroke fill;stroke-linecap:square;stroke-linejoin:round" />
  <path
     class="cls-1"
     d="m 110.70467,36.776068 h 20.07581 v -4.905095 h -14.2232 V 4.4767783 h -5.85261 z"
     id="path12"
     style="stroke-width:2;stroke:#ffffff;stroke-opacity:0.5;stroke-dasharray:none;paint-order:markers stroke fill;stroke-linecap:square;stroke-linejoin:round" />
  <path
     class="cls-1"
     d="m 141.71618,37.265531 c 3.80053,0 6.06985,-1.782481 7.1116,-3.816237 h 0.18845 v 3.326774 h 5.49664 V 20.563604 c 0,-6.402274 -5.21919,-8.326097 -9.8416,-8.326097 -5.09355,0 -9.00401,2.269326 -10.26562,6.684958 l 5.33174,0.75906 c 0.56536,-1.656844 2.17509,-3.0755 4.97314,-3.0755 2.65148,0 4.10154,1.355838 4.10154,3.737714 v 0.09423 c 0,1.638522 -1.71966,1.719662 -5.99395,2.175098 -4.69832,0.505167 -9.19247,1.908119 -9.19247,7.365495 -0.0157,4.763752 3.46811,7.286971 8.09053,7.286971 z m 1.8767,-4.187915 c -2.38187,0 -4.08583,-1.088858 -4.08583,-3.185432 0,-2.19342 1.90812,-3.106909 4.44966,-3.470734 1.4998,-0.204161 4.49677,-0.583691 5.23489,-1.180469 v 2.853017 c 0.0157,2.688118 -2.16201,4.975766 -5.59872,4.975766 z"
     id="path14"
     style="stroke-width:2;stroke:#ffffff;stroke-opacity:0.5;stroke-dasharray:none;paint-order:markers stroke fill;stroke-linecap:square;stroke-linejoin:round" />
  <path
     class="cls-1"
     d="m 158.71649,36.776068 h 5.61442 v -3.816237 h 0.3298 c 0.9004,1.766776 2.77711,4.242881 6.94147,4.242881 5.70865,0 9.98294,-4.528183 9.98294,-12.50616 0,-8.074822 -4.39993,-12.459045 -9.99865,-12.459045 -4.27429,0 -6.05677,2.570333 -6.92576,4.321404 h -0.2408 V 4.4767783 h -5.70342 z m 5.59872,-12.110925 c 0,-4.711404 2.01805,-7.745024 5.69294,-7.745024 3.80054,0 5.75839,3.232546 5.75839,7.745024 0,4.512478 -1.98665,7.85234 -5.75839,7.85234 -3.64348,0 -5.69294,-3.154023 -5.69294,-7.85234 z"
     id="path16"
     style="stroke-width:2;stroke:#ffffff;stroke-opacity:0.5;stroke-dasharray:none;paint-order:markers stroke fill;stroke-linecap:square;stroke-linejoin:round" />
  <path
     class="cls-2"
     d="M 40.091197,15.540725 40.036231,15.394148 34.487244,0.91966847 A 1.4395956,1.4395956 0 0 0 33.916641,0.23128004 1.46577,1.46577 0 0 0 31.715369,1.0688629 L 27.969803,12.535896 H 12.8017 L 9.0561341,1.0688629 A 1.4683875,1.4683875 0 0 0 6.8548616,0.23128004 1.4395956,1.4395956 0 0 0 6.2842583,0.91966847 L 0.73788917,15.396765 0.68030535,15.540725 A 10.302269,10.302269 0 0 0 4.0986905,27.447489 l 0.02094,0.0157 0.047114,0.03665 8.4412645,6.326368 4.187914,3.164493 2.544158,1.923823 a 1.7196624,1.7196624 0 0 0 2.073018,0 l 2.544158,-1.923823 4.187914,-3.164493 8.501467,-6.363013 0.02356,-0.01832 A 10.302269,10.302269 0 0 0 40.0912,15.540728 Z"
     id="path18"
     style="stroke-width:0.261745" />
  <path
     class="cls-3"
     d="m 40.091197,15.540725 -0.05497,-0.146577 a 18.714742,18.714742 0 0 0 -7.459723,3.355566 l -12.184213,9.213412 7.758111,5.86308 8.501467,-6.363013 0.02356,-0.01832 a 10.302269,10.302269 0 0 0 3.415767,-11.904146 z"
     id="path20"
     style="stroke-width:0.261745" />
  <path
     class="cls-4"
     d="m 12.608009,33.826206 4.187914,3.164493 2.544158,1.923823 a 1.7196624,1.7196624 0 0 0 2.073018,0 l 2.544158,-1.923823 4.187914,-3.164493 -7.758111,-5.86308 z"
     id="path22"
     style="stroke-width:0.261745" />
  <path
     class="cls-3"
     d="M 8.1949943,18.749714 A 18.699038,18.699038 0 0 0 0.73788917,15.396765 l -0.0575838,0.14396 A 10.302269,10.302269 0 0 0 4.0986905,27.447489 l 0.02094,0.0157 0.047114,0.03665 8.4412645,6.326368 7.763346,-5.86308 z"
     id="path24"
     style="stroke-width:0.261745" />
</svg>
