<?xml version="1.0" encoding="UTF-8" standalone="no"?>
<svg
   width="188.995"
   height="48"
   fill="none"
   viewBox="0 0 188.995 48"
   version="1.1"
   id="svg55"
   sodipodi:docname="logo-intellij-idea.svg"
   inkscape:version="1.2.2 (b0a8486541, 2022-12-01)"
   xmlns:inkscape="http://www.inkscape.org/namespaces/inkscape"
   xmlns:sodipodi="http://sodipodi.sourceforge.net/DTD/sodipodi-0.dtd"
   xmlns="http://www.w3.org/2000/svg"
   xmlns:svg="http://www.w3.org/2000/svg">
  <sodipodi:namedview
     id="namedview57"
     pagecolor="#ffffff"
     bordercolor="#666666"
     borderopacity="1.0"
     inkscape:showpageshadow="2"
     inkscape:pageopacity="0.0"
     inkscape:pagecheckerboard="0"
     inkscape:deskcolor="#d1d1d1"
     showgrid="false"
     inkscape:zoom="8"
     inkscape:cx="98.375"
     inkscape:cy="33.3125"
     inkscape:window-width="3774"
     inkscape:window-height="1531"
     inkscape:window-x="2626"
     inkscape:window-y="32"
     inkscape:window-maximized="1"
     inkscape:current-layer="svg55" />
  <defs
     id="defs41">
    <linearGradient
       id="a"
       x1="-0.71999902"
       x2="24.1436"
       y1="7.62784"
       y2="61.252399"
       gradientUnits="userSpaceOnUse">
      <stop
         offset=".1"
         stop-color="#FC801D"
         id="stop31" />
      <stop
         offset=".59"
         stop-color="#FE2857"
         id="stop33" />
    </linearGradient>
    <linearGradient
       id="b"
       x1="4.2203102"
       x2="62.921101"
       y1="60.0205"
       y2="1.31055"
       gradientUnits="userSpaceOnUse">
      <stop
         offset=".21"
         stop-color="#FE2857"
         id="stop36" />
      <stop
         offset=".7"
         stop-color="#007EFF"
         id="stop38" />
    </linearGradient>
  </defs>
  <g
     id="g223"
     transform="scale(0.61347968)">
    <path
       fill="#000000"
       fill-rule="evenodd"
       d="M 89.46,46.9622 H 84 v -29.96 h 5.46 z m 17.15,-22.43 c 1.57,0 2.95,0.34 4.13,1.03 l 0.01,0.03 c 1.18,0.68 2.11,1.68 2.76,2.97 0.65,1.29 0.98,2.84 0.98,4.64 v 13.78 h -5.03 v -13.01 c 0,-1.06 -0.18,-1.96 -0.54,-2.7 -0.36,-0.74 -0.87,-1.31 -1.54,-1.7 -0.67,-0.39 -1.47,-0.59 -2.4,-0.59 -1,0 -1.88,0.22 -2.65,0.67 -0.77,0.45 -1.37,1.07 -1.79,1.88 -0.42,0.81 -0.63,1.72 -0.63,2.75 v 12.69 h -5.05 v -21.92 h 4.9 v 3.21 c 0.63,-1.06 1.44,-1.92 2.45,-2.55 1.25,-0.79 2.72,-1.18 4.4,-1.18 z m 14.27,-4.83 h 4.7 v 5.35 h 5.82 l -0.02,4.39 h -5.82 l 0.02,11.06 c 0,0.6 0.2,1.1 0.59,1.49 0.39,0.39 0.89,0.59 1.49,0.59 h 3.72 v 4.39 h -4.73 c -1.17,0 -2.23,-0.25 -3.16,-0.75 -0.93,-0.5 -1.66,-1.2 -2.18,-2.08 -0.52,-0.89 -0.78,-1.89 -0.78,-3 l -0.02,-11.71 h -3.85 l 0.02,-4.39 h 2.4 c 0.55,0 0.98,-0.16 1.31,-0.5 0.33,-0.33 0.49,-0.76 0.49,-1.29 z m 23.23,4.83 c 2.16,0 4.08,0.49 5.76,1.46 l -0.02,-0.01 c 1.69,0.98 3,2.33 3.93,4.06 0.93,1.73 1.4,3.71 1.4,5.94 v 1.22 h -17.29 c 0.1,1.01 0.35,1.94 0.78,2.77 0.54,1.05 1.28,1.86 2.23,2.45 0.95,0.59 2.02,0.88 3.22,0.88 1.06,0 2.01,-0.21 2.85,-0.62 0.84,-0.41 1.54,-0.99 2.1,-1.73 h 5.5 c -0.52,1.36 -1.27,2.52 -2.25,3.49 -0.98,0.97 -2.17,1.72 -3.57,2.25 -1.39,0.53 -2.94,0.79 -4.64,0.79 -2.15,0 -4.09,-0.5 -5.81,-1.48 -1.72,-0.99 -3.08,-2.35 -4.07,-4.11 -0.99,-1.76 -1.49,-3.78 -1.49,-5.93 0,-2.15 0.5,-4.1 1.5,-5.84 1,-1.74 2.37,-3.11 4.1,-4.1 1.74,-0.99 3.61,-1.49 5.77,-1.49 z m -6.118,9.28 h 12.018 c -0.12,-0.67 -0.31,-1.3 -0.59,-1.89 -0.5,-1.06 -1.21,-1.89 -2.13,-2.49 -0.92,-0.6 -1.98,-0.9 -3.18,-0.9 -1.2,0 -2.27,0.29 -3.22,0.87 -0.95,0.58 -1.69,1.38 -2.23,2.4 -0.328,0.6171 -0.538,1.2937 -0.668,2.01 z m 25.918,13.15 h -5.05 v -29.96 h 5.05 z m 9.93,0 h -5.05 v -29.96 h 5.05 z m 9.92,-22.53 v 13.95 h -5.14 v -13.95 z m 5.84,15.1 c 0.46,-0.81 0.69,-1.74 0.69,-2.8 l -0.01,-0.01 v -19.73 h 5.33 v 20.2 c 0,1.95 -0.45,3.65 -1.34,5.12 -0.9,1.47 -2.15,2.61 -3.75,3.42 -1.61,0.81 -3.47,1.22 -5.58,1.22 h -6.33 v -4.86 h 6.23 c 1.07,0 2.02,-0.22 2.84,-0.67 0.82,-0.45 1.46,-1.08 1.92,-1.89 z m -11.17,-21.67 h 5.76 v 5.01 h -5.76 z m 41.31,29.1 h -5.46 v -29.96 h 5.46 z m 17.16,-29.96 c 2.83,0 5.36,0.65 7.59,1.93 v -0.02 c 2.23,1.29 3.97,3.06 5.23,5.33 1.25,2.27 1.88,4.84 1.88,7.73 0,2.89 -0.62,5.46 -1.88,7.73 -1.25,2.27 -2.99,4.04 -5.23,5.33 -2.24,1.29 -4.76,1.93 -7.59,1.93 h -11.24 v -29.96 z m 4.85,24.06 c 1.4,-0.85 2.49,-2.04 3.25,-3.6 v 0.01 c 0.77,-1.56 1.15,-3.38 1.15,-5.48 0,-2.1 -0.39,-3.92 -1.15,-5.48 -0.76,-1.56 -1.84,-2.76 -3.25,-3.6 -1.41,-0.84 -3.04,-1.26 -4.89,-1.26 H 231 v 20.67 h 5.86 c 1.85,0 3.49,-0.41 4.89,-1.26 z m 34.08,-6.85 h -14.6 v 8.03 h 16.48 v 4.73 h -21.68 v -29.96 h 21.25 v 4.73 h -16.05 v 7.85 h 14.6 z m 15.27,-17.21 h 5.76 l 11.21,29.96 h -5.39 l -2.55,-7.19 H 288.1 l -2.35,7.19 h -5.52 z m 2.37,6.57 -4.04,12.01 h 9.26 l -4.3,-12.01 -0.47,-1.86 z m -205.76,50.62 c 0.17,-0.31 0.25,-0.66 0.25,-1.05 h 0.01 v -9.15 h 3.1 v 9.37 c 0,0.88 -0.2,1.67 -0.61,2.38 -0.41,0.71 -0.97,1.26 -1.68,1.66 -0.71,0.4 -1.52,0.6 -2.41,0.6 H 84 v -2.85 h 1.95 c 0.4,0 0.75,-0.08 1.05,-0.25 0.31,-0.17 0.54,-0.4 0.71,-0.71 z m 15.26,-1.9 h -6.5 v 3.02 h 7.38 v 2.7 h -10.4 v -14.02 h 10.2 v 2.71 h -7.18 v 2.97 h 6.5 z m 6.16,-5.52 h -4.16 v -2.78 h 11.39 v 2.78 h -4.13 v 11.23 h -3.1 z m 17.2,3.9 c 0.29,0.08 0.56,0.18 0.81,0.31 h 0.01 c 0.57,0.31 1.02,0.73 1.34,1.28 0.32,0.55 0.48,1.17 0.48,1.86 0,0.75 -0.2,1.42 -0.61,2.01 -0.41,0.59 -0.98,1.05 -1.72,1.38 -0.74,0.33 -1.58,0.5 -2.52,0.5 h -6.35 v -14.02 H 124 c 0.89,0 1.69,0.16 2.39,0.47 0.7,0.31 1.24,0.75 1.63,1.31 0.39,0.56 0.58,1.2 0.58,1.91 0,0.62 -0.15,1.17 -0.44,1.65 -0.29,0.48 -0.7,0.86 -1.21,1.12 -0.179,0.0945 -0.386,0.1532 -0.585,0.21 z m -2.8,-4.33 h -2.75 v 3.45 h 2.75 c 0.38,0 0.72,-0.08 1.01,-0.22 0.3,-0.14 0.52,-0.34 0.69,-0.61 0.17,-0.27 0.25,-0.59 0.25,-0.93 0,-0.34 -0.09,-0.64 -0.25,-0.89 -0.17,-0.26 -0.4,-0.45 -0.69,-0.59 -0.29,-0.14 -0.63,-0.21 -1.01,-0.21 z m 1.24,9.1 c 0.32,-0.15 0.57,-0.35 0.75,-0.62 v 0.02 c 0.18,-0.27 0.27,-0.57 0.27,-0.93 0,-0.36 -0.09,-0.68 -0.27,-0.96 -0.18,-0.28 -0.44,-0.5 -0.76,-0.65 -0.33,-0.15 -0.7,-0.23 -1.11,-0.23 h -2.87 v 3.59 h 2.87 c 0.42,0 0.8,-0.07 1.12,-0.22 z m 16.56,-4.67 c -0.43,0.67 -1.03,1.2 -1.81,1.57 h -0.01 c -0.14,0.07 -0.3,0.13 -0.46,0.19 l 3.2,5.48 h -3.54 l -2.84,-5.11 h -2.02 v 5.11 h -3.1 v -14.02 h 6.14 c 1.01,0 1.9,0.18 2.67,0.55 0.77,0.37 1.36,0.89 1.78,1.56 0.42,0.67 0.63,1.43 0.63,2.32 0,0.89 -0.21,1.68 -0.64,2.35 z m -3.56,-0.61 c 0.32,-0.16 0.57,-0.39 0.74,-0.68 v 0.01 c 0.17,-0.29 0.26,-0.63 0.26,-1.03 0,-0.4 -0.09,-0.74 -0.26,-1.03 -0.17,-0.29 -0.42,-0.51 -0.74,-0.67 -0.32,-0.15 -0.7,-0.23 -1.13,-0.23 h -2.79 v 3.87 h 2.79 c 0.43,0 0.81,-0.08 1.13,-0.24 z m 5.51,7.85 5.01,-14.02 h 3.36 l 5.12,14.02 h -3.09 l -1.06,-3.09 h -5.2 l -0.99,3.09 z m 6.46,-10.39 -1.61,4.95 h 3.71 l -1.72,-4.95 -0.19,-0.9 z m 11.43,10.39 h -3.2 v -14.02 h 3.2 z m 5.44,-14.02 6.02,9.48 h 0.01 v -9.48 h 2.83 v 14.02 h -3.05 l -6,-9.48 v 9.48 h -2.83 v -14.02 z m 17.78,5.66 c 0.71,0.13 1.33,0.4 1.88,0.79 v -0.02 c 0.55,0.4 0.97,0.88 1.28,1.47 0.31,0.59 0.46,1.23 0.46,1.92 0,0.85 -0.23,1.61 -0.68,2.28 -0.45,0.67 -1.08,1.2 -1.88,1.58 -0.81,0.38 -1.74,0.57 -2.77,0.57 -1.03,0 -1.95,-0.19 -2.75,-0.56 -0.8,-0.37 -1.43,-0.9 -1.89,-1.56 -0.46,-0.66 -0.7,-1.44 -0.71,-2.31 h 3.1 c 0,0.36 0.1,0.68 0.29,0.96 0.19,0.28 0.46,0.49 0.81,0.64 0.35,0.15 0.75,0.23 1.18,0.23 0.43,0 0.8,-0.07 1.12,-0.2 0.32,-0.13 0.56,-0.32 0.74,-0.57 0.18,-0.25 0.27,-0.53 0.27,-0.84 0,-0.39 -0.12,-0.71 -0.36,-0.97 -0.24,-0.26 -0.57,-0.44 -0.98,-0.54 l -2.52,-0.52 c -0.66,-0.14 -1.24,-0.39 -1.74,-0.75 -0.5,-0.36 -0.89,-0.82 -1.16,-1.36 -0.27,-0.55 -0.41,-1.16 -0.41,-1.83 0,-0.84 0.22,-1.58 0.64,-2.23 0.43,-0.65 1.02,-1.16 1.78,-1.53 0.76,-0.37 1.62,-0.55 2.6,-0.55 0.98,0 1.86,0.18 2.62,0.53 0.76,0.35 1.36,0.84 1.79,1.47 0.43,0.62 0.66,1.35 0.68,2.16 h -3.1 c 0,-0.3 -0.09,-0.57 -0.25,-0.81 -0.17,-0.24 -0.4,-0.42 -0.69,-0.55 -0.29,-0.14 -0.64,-0.2 -1.02,-0.2 -0.38,0 -0.72,0.07 -1.01,0.19 -0.29,0.12 -0.52,0.3 -0.68,0.52 -0.16,0.23 -0.24,0.49 -0.24,0.79 0,0.34 0.11,0.61 0.33,0.84 0.22,0.23 0.52,0.38 0.89,0.47 z m 14.38,8.36 h -3.2 v -14.02 h 3.2 z m 7.88,-14.02 c 1.33,0 2.53,0.31 3.59,0.91 1.06,0.61 1.9,1.44 2.5,2.51 0.61,1.06 0.91,2.27 0.91,3.59 0,1.32 -0.31,2.52 -0.91,3.59 -0.6,1.07 -1.43,1.9 -2.5,2.51 -1.07,0.61 -2.26,0.91 -3.59,0.91 h -5.47 v -14.02 z m 2.01,10.86 c 0.58,-0.35 1.03,-0.85 1.34,-1.5 v -0.01 c 0.31,-0.65 0.47,-1.44 0.47,-2.35 0,-0.91 -0.16,-1.7 -0.47,-2.35 -0.31,-0.65 -0.76,-1.15 -1.34,-1.5 -0.58,-0.35 -1.26,-0.52 -2.05,-0.52 h -2.32 v 8.75 h 2.32 c 0.79,0 1.47,-0.17 2.05,-0.52 z m 9.8,-2.56 v 3.02 h 7.38 v 2.7 h -10.4 v -14.02 h 10.2 v 2.71 h -7.18 v 2.97 h 6.5 v 2.62 z"
       clip-rule="evenodd"
       id="path43" />
    <path
       fill="#ff8100"
       d="M 15.95,5.82812 H 4.07 C 1.82,5.82812 0,7.65784 0,9.89748 V 21.4057 c 0,1.1898 0.519998,2.3196 1.42,3.0895 L 39.58,57.2 c 0.74,0.6299 1.68,0.9799 2.65,0.9799 h 11.88 c 2.25,0 4.07,-1.8197 4.07,-4.0694 V 42.6023 c 0,-1.1898 -0.52,-2.3196 -1.42,-3.0895 L 18.6,6.80797 C 17.86,6.17807 16.92,5.82812 15.95,5.82812 Z"
       id="path45" />
    <path
       fill="url(#a)"
       d="M 14.52,5.82812 H 4.07 C 1.82,5.82812 0,7.64784 0,9.89748 V 22.9854 c 0,0.19 0.01,0.39 0.04,0.5799 l 5.28,36.9342 c 0.29,2.0097 2,3.4995 4.03,3.4995 h 15.67 c 2.25,0 4.07,-1.8197 4.07,-4.0694 V 41.3925 c 0,-0.4399 -0.08,-0.8698 -0.21,-1.2898 L 18.38,8.60769 C 17.83,6.94795 16.27,5.82812 14.52,5.82812 Z"
       id="path47"
       style="fill:url(#a)" />
    <path
       fill="url(#b)"
       d="m 59.9303,0.009997 h -33.97 c -1.63,0 -3.1,0.969848 -3.74,2.469613 L 6.15031,39.9637 c -0.22,0.5099 -0.33,1.0498 -0.33,1.5997 v 18.3572 c 0,2.2496 1.82,4.0693 4.07,4.0693 H 27.8603 c 0.8,0 1.59,-0.2399 2.26,-0.6899 l 32.07,-21.3966 c 1.13,-0.7599 1.81,-2.0297 1.81,-3.3895 V 4.06936 C 64.0003,1.81971 62.1803,0 59.9303,0 Z"
       id="path49"
       style="fill:url(#b)" />
    <path
       fill="#000000"
       d="M 52,12 H 12 v 40 h 40 z"
       id="path51" />
    <path
       fill="#ffffff"
       d="m 25.84,29.3978 h -2.98 v -9.77 h 2.98 v -2.61 H 17 v 2.61 h 2.98 v 9.77 H 17 v 2.61 h 8.84 z m 5.88,-12.39 v 10.07 c 0,0.44 -0.09,0.82 -0.28,1.16 -0.19,0.34 -0.45,0.6 -0.79,0.79 -0.34,0.19 -0.73,0.28 -1.16,0.28 h -2.15 v 2.7 h 2.52 c 0.91,0 1.72,-0.2 2.45,-0.61 0.73,-0.41 1.3,-0.97 1.71,-1.69 0.41,-0.72 0.62,-1.53 0.62,-2.43 v -10.27 z m -14.72,30 h 16 v -3 H 17 Z"
       id="path53" />
  </g>
</svg>
